<svg xmlns="http://www.w3.org/2000/svg" xmlns:xlink="http://www.w3.org/1999/xlink" version="1.1" x="0px" y="0px" viewBox="0 0 48 60" enable-background="new 0 0 48 48" xml:space="preserve"><path d="M10.395,25.141c-2.332,0-4.223,1.891-4.223,4.219c0,2.332,1.891,4.223,4.223,4.223c2.328,0,4.219-1.891,4.219-4.223  C14.613,27.031,12.723,25.141,10.395,25.141z M10.395,31.492c-1.18,0-2.133-0.953-2.133-2.133c0-1.176,0.953-2.129,2.133-2.129  c1.176,0,2.133,0.953,2.133,2.129C12.527,30.539,11.57,31.492,10.395,31.492z"/><path d="M37.887,25.141c-2.332,0-4.219,1.891-4.219,4.219c0,2.332,1.887,4.223,4.219,4.223s4.219-1.891,4.219-4.223  C42.105,27.031,40.219,25.141,37.887,25.141z M37.887,31.492c-1.176,0-2.133-0.953-2.133-2.133c0-1.176,0.957-2.129,2.133-2.129  c1.18,0,2.137,0.953,2.137,2.129C40.023,30.539,39.066,31.492,37.887,31.492z"/><path d="M42.465,20.23c0,0-6.289-5.813-9.684-5.813c-1.105,0-9.129,0-10.516,0c-1.383,0-11.203,5.813-11.203,5.813  s-5.395,1.246-7.609,2.074c-2.215,0.832-2.492,5.949-1.105,7.887h2.82c-0.047-0.27-0.074-0.547-0.074-0.832  c0-2.922,2.379-5.297,5.301-5.297c2.918,0,5.297,2.375,5.297,5.297c0,0.285-0.031,0.563-0.074,0.832H32.66  c-0.043-0.27-0.07-0.547-0.07-0.832c0-2.922,2.379-5.297,5.297-5.297c2.922,0,5.301,2.375,5.301,5.297  c0,0.113-0.012,0.227-0.016,0.34c1.254-0.367,2.734-0.855,2.891-1.168c0.277-0.555,0.828-4.426,0-7.609L42.465,20.23z M5.258,25.016  c-0.762,0-2.457,0-2.457,0c0.313-1.313,0.867-1.73,0.867-1.73C6.641,23.219,6.02,25.016,5.258,25.016z M26.285,20.465H12.793  c4.215-2.453,8.668-4.844,9.523-4.969h3.969V20.465z M27.531,20.465v-4.969l2.758,0.004c1.984,0,5.91,2.844,8.332,4.965H27.531z   M44.77,24.738c-0.457,0-0.832-0.371-0.832-0.828v-1.176c0-0.461,0.375-0.828,0.832-0.828h0.488c0.164,0.953,0.227,1.926,0.23,2.832  H44.77z"/></svg>