<svg xmlns="http://www.w3.org/2000/svg" xmlns:xlink="http://www.w3.org/1999/xlink" xml:space="preserve" version="1.1" style="shape-rendering:geometricPrecision;text-rendering:geometricPrecision;image-rendering:optimizeQuality;" viewBox="0 0 236 262.5" x="0px" y="0px" fill-rule="evenodd" clip-rule="evenodd"><defs><style type="text/css">
   
    .fil0 {fill:black;fill-rule:nonzero}
   
  </style></defs><g><path class="fil0" d="M204 111l0 99c-23,0 -46,0 -69,0l0 -67 -34 0 0 67c-23,0 -46,0 -69,0l0 -99 -32 -23 118 -88 59 44 0 -26 22 0 0 43 37 27 -32 23zm-86 -95l-96 72 25 18 0 92 39 0 0 -66 64 0 0 66 39 0 0 -92 25 -18 -96 -72z"/></g></svg>