<svg xmlns:dc="http://purl.org/dc/elements/1.1/" xmlns:cc="http://creativecommons.org/ns#" xmlns:rdf="http://www.w3.org/1999/02/22-rdf-syntax-ns#" xmlns:svg="http://www.w3.org/2000/svg" xmlns="http://www.w3.org/2000/svg" xmlns:sodipodi="http://sodipodi.sourceforge.net/DTD/sodipodi-0.dtd" xmlns:inkscape="http://www.inkscape.org/namespaces/inkscape" viewBox="0 0 12.7 15.875" version="1.1" x="0px" y="0px"><g transform="translate(0,-284.29998)"><path style="" d="m 11.012384,288.95161 a 12.759803,12.759803 0 0 0 -1.9622428,-0.56782 l -0.7028575,-0.70146 1.001503,-0.77651 a 6.895035,6.895035 0 0 1 1.6635973,2.04579 z" fill="#000000" stroke="none"/><path style="" d="m 6.9291871,288.67579 a 3.264657,3.264657 0 0 0 -0.9668287,0.12913 l -0.7709087,1.0562 -1.6390358,-0.25926 -0.608878,-0.73801 H 0.52916666 a 7.9191505,7.9191505 0 0 0 3.67825814,1.97098 l 0.1507678,0.28234 -0.3574731,0.24845 a 1.6846668,1.6846668 0 1 0 0.3864349,1.52906 h 4.0985824 v -0.3776 a 1.1401616,1.1401616 0 0 1 0.6854813,-1.0454 l 0.1728411,-0.0752 a 0.02850406,0.02850406 0 0 1 0.030445,0.0471 1.6846668,1.6846668 0 1 0 0.9442278,-0.4105 0.02850406,0.02850406 0 0 1 -0.01433,-0.0545 l 1.286491,-0.55977 a 6.8950349,6.8950349 0 0 0 -0.30787,-0.89858 12.332241,12.332241 0 0 0 -2.1595459,-0.68399 L 8.474853,289.343 8.1600937,288.93988 A 3.264657,3.264657 0 0 0 6.9290885,288.6757 Z m -4.2399978,2.56364 a 1.2571061,1.2571061 0 0 1 0.9569987,0.37318 l -1.0169086,0.70707 a 0.21378034,0.21378034 0 0 0 0.2435362,0.35109 l 1.0174115,-0.70708 a 1.2571061,1.2571061 0 1 1 -1.2010378,-0.72426 z m 1.951834,0.2023 0.6073948,0.68646 H 4.395501 a 1.6846668,1.6846668 0 0 0 -0.1502648,-0.41148 z m 5.8638237,0.0104 a 1.2571062,1.2571062 0 1 1 -0.9437498,0.40657 l 0.7561758,0.98106 a 0.21378035,0.21378035 0 0 0 0.338794,-0.26073 l -0.7561761,-0.98156 a 1.2571062,1.2571062 0 0 1 0.6049561,-0.14534 z" fill="#000000" stroke="none"/><path style="" d="m 8.6705392,288.50311 a 0.26650938,0.26650938 0 1 0 -0.532963,0 0.26650938,0.26650938 0 1 0 0.532963,0 z" fill="#000000" stroke="none"/><path style="" d="m 1.5310768,290.29739 0.3620234,0.25259 -0.177306,0.12062 -0.2752708,0.0452 -0.784479,0.84444 -0.12076949,-0.11687 0.53182279,-0.91607 z" fill="#000000" stroke="none"/></g><text x="0" y="27.7" fill="#000000" font-size="5px" font-weight="bold" font-family="'Helvetica Neue', Helvetica, Arial-Unicode, Arial, Sans-serif">Created by Phạm Thanh Lộc</text><text x="0" y="32.7" fill="#000000" font-size="5px" font-weight="bold" font-family="'Helvetica Neue', Helvetica, Arial-Unicode, Arial, Sans-serif">from the Noun Project</text></svg>