<svg xmlns="http://www.w3.org/2000/svg" xmlns:xlink="http://www.w3.org/1999/xlink" version="1.1" x="0px" y="0px" viewBox="0 0 100 125" enable-background="new 0 0 100 100" xml:space="preserve"><path fill="#000000" d="M89.149,34.414c-3.172,0.186-6.873,0.59-8.688,1.302l0,0H80.46h0.001l0,0l-0.462-1.193  c3.895-1.482,13.355-1.565,14.831-1.579c0.084-0.214,0.13-0.347,0.133-0.356c0.08-0.24,0.013-0.502-0.172-0.671  c-3.875-3.568-9.733-3.845-11.851-3.86c-0.502,0.001-0.795,0.021-0.808,0.022c-0.573,0.03-0.91,0.387-1.261,0.771  c-0.571,0.68-1.139,1.729-1.619,2.876c-0.264-0.064-0.544,0.035-0.693,0.275l0,0c-0.011,0.052-0.549,0.792-0.58,1.682  c0,0.186,0.029,0.402,0.146,0.621c0.05,0.091,0.123,0.162,0.203,0.217c-0.078,0.348-0.114,0.702-0.114,1.054  c0.019,2.631,1.674,5.236,1.687,5.285c0.084,0.138,0.221,0.238,0.375,0.281c0.551,0.154,1.098,0.26,1.639,0.341  c-0.895,0.097-1.686,0.166-2.108,0.165c-0.719-0.015-1.249,0.374-1.563,0.823c-0.424-0.693-0.908-1.085-1.305-0.832  c-2.57,0.01-10.146-0.15-14.615,1.76c-2.08,1.6-8.062,0.467-11.465,2.4c-0.866,0.491-2.462,2.188-3.401,3.654  c-0.204,0.317-0.25,0.62-0.224,0.899c-0.09,0.146-0.174,0.36-0.211,0.715c-0.026,0.506,0.383,0.992,0.617,1.096  c0.36,0.197,0.47,0.162,0.554,0.186c0.077,0.006,0.109,0.006,0.131,0.006c0.248-0.01,0.339-0.031,0.512-0.061l0.079,0.121  c0.16,0.242,0.404,0.424,0.682,0.512c0.924,0.289,1.611,0.928,2.119,1.744c0.45,0.717,0.721,1.562,0.814,2.215  c-0.676,2.172-1.469,4.311-2.203,6.018c-0.667,1.592-1.394,2.885-1.666,3.219c-0.039,0.014-0.1,0.031-0.189,0.049  c-0.503,0.113-1.634,0.168-3.266,0.166c-1.647,0-3.836-0.043-6.608-0.059c-1.263-0.006-2.379-0.061-3.259-0.346  c-0.863-0.289-1.53-0.719-2.18-1.705c-3.272-7.174-4.046-10.594-4.039-12.871c0-0.781,0.084-1.458,0.214-2.166  c0.747-0.502,1.249-1.238,1.787-2.057c1.998-3.247,3.622-8.452,3.869-9.561c0.027-0.133,0.037-0.253,0.036-0.366  c0.017-0.268-0.062-0.533-0.192-0.767c0.091-0.131,0.167-0.273,0.203-0.435c0.136-0.589,0.199-1.126,0.199-1.62  c0.003-0.47-0.06-0.895-0.159-1.28c0.571-0.381,0.742-1.152,0.374-1.738c-0.31-0.5-0.908-0.704-1.446-0.545  c-0.15-0.288-0.212-0.487-0.211-0.728c0-0.181,0.034-0.43,0.174-0.806c0.162-0.438,0.075-0.926-0.23-1.277  c-0.121-0.141-0.274-0.243-0.437-0.317c0.035-0.563,0.075-1.152,0.122-1.746c0.244-0.045,0.453-0.23,0.512-0.486  c0.21-0.875,0.607-1.266,1.094-1.676c0.469-0.403,1.134-0.754,1.441-1.604c0.11-0.338,0.184-0.681,0.184-1.032  c0.005-0.51-0.169-1.063-0.593-1.457c-0.402-0.375-0.963-0.577-1.64-0.627c-0.077-0.021-0.158-0.031-0.234-0.031  c-0.689,0.06-0.886,0.535-1.064,0.895c-0.576,1.355-0.845,4.162-1.039,6.76c-0.026,0.353-0.048,0.699-0.068,1.035  c-5.878,1.577-8.28,7.387-8.358,7.479c-0.165,0.376-0.136,0.813,0.074,1.165c0.211,0.352,0.582,0.584,0.99,0.62  c0.011,0,0.625,0.054,1.568,0.106c-1.907,1.178-9.907,6.416-12.906,14.836c-0.161,0.459-0.05,0.963,0.289,1.312  s0.84,0.477,1.304,0.332c0,0,0.02-0.008,0.097-0.027c0.229-0.062,0.837-0.193,1.461-0.191c0.41-0.002,0.807,0.057,1.125,0.18  c0.347,1.191,0.876,2.312,1.516,3.383c-1.059-0.268-2.161-0.426-3.303-0.426c-1.732,0-3.39,0.328-4.915,0.928  c-0.236,0.098-0.479,0.215-0.729,0.457c-0.251,0.23-0.485,0.67-0.474,1.113c0.049,0.754,0.385,1.105,0.699,1.393  c-3.258,1.924-5.45,5.463-5.451,9.521c0.002,6.107,4.95,11.059,11.059,11.061c5.604-0.002,10.219-4.174,10.948-9.576  c0.193,0.098,0.433,0.178,0.797,0.197c0.022,0.002,0.044,0.006,0.068,0.006c0.428,0,1.002-0.34,1.187-0.725  c0.037-0.07,0.061-0.129,0.088-0.191c0.14,0.209,0.338,0.377,0.579,0.475c0.077,0.02,7.281,3.01,13.819,3.027  c0.598,0,1.188-0.025,1.769-0.08c0.241-0.025,0.466-0.119,0.657-0.264l8.01,1.998c0.039,0.014,0.084,0.018,0.127,0.018  c0.229,0,0.438-0.148,0.506-0.379c0.078-0.268-0.066-0.557-0.334-0.648l-5.648-1.959c1.207-0.213,2.694-0.406,4.209-0.76  c0.28,0.184,0.579,0.344,0.893,0.473c0.437,1.156,1.322,2.094,2.449,2.59c0.108,0.064,0.223,0.111,0.344,0.135  c0.475,0.166,0.984,0.26,1.518,0.26c0.512,0,1.003-0.088,1.466-0.24h3.173c1.894,3.367,5.494,5.646,9.637,5.646  c6.105,0,11.056-4.951,11.058-11.062l0,0c0-0.729-0.075-1.438-0.21-2.127c0.654-0.473,1.027-1.02,0.87-1.656l-0.117-0.473  c-0.06-0.25-0.138-0.521-0.226-0.801h0.68c0.501,0,0.906-0.406,0.906-0.908v-0.428c0-0.5-0.405-0.904-0.906-0.904h-1.609  c-0.476-0.881-1.031-1.521-1.576-1.439l-1.6,0.428c-1.178-1.031-2.568-1.82-4.104-2.283c0.328-0.145,0.621-0.248,0.856-0.293  c0.524-0.117,0.916-0.562,0.966-1.1c0.051-0.531-0.254-1.043-0.746-1.254c-0.703-0.277-1.627-0.391-3.049-0.404  c-2.06,0-4.927,0.379-7.791,1.789c0.172-0.551,0.319-1.104,0.418-1.666c0.687,0.291,1.312,0.428,1.924,0.428  c1.326-0.035,2.041-0.494,2.947-0.623l-0.223-1.26l0.224,1.26c2.218-0.418,4.812-1.979,7.36-3.875  c0.182-0.137,0.359-0.281,0.538-0.42c0.139,0.068,0.294,0.162,0.442,0.275c0.088,0.352,0.289,0.625,0.471,0.801  c0.098,0.086,0.197,0.158,0.295,0.227c0.076,0.17,0.16,0.369,0.244,0.582c0.336,0.812,0.734,1.891,1.141,2.818  c0.206,0.465,0.41,0.898,0.639,1.277c0.25,0.357,0.377,0.711,1.021,1.045l-0.002,0.002c0,0,0.018,0.01,0.066,0.051  c0.41,0.311,1.504,1.48,2.385,2.494c0.904,1.021,1.66,1.936,1.66,1.938c0.244,0.291,0.599,0.447,0.959,0.447  c0.224,0,0.449-0.062,0.652-0.189c0.526-0.324,0.73-0.994,0.48-1.559c-0.43-0.941-1.217-2.012-2.004-3.066  c-0.778-1.025-1.57-2.02-1.82-2.398c-0.152-0.195-0.747-1.617-1.189-2.936c-0.072-0.203-0.14-0.408-0.207-0.615  c0.067-0.055,0.129-0.109,0.188-0.168c0.445-0.479,0.756-0.891,0.8-1.672c0.048-0.369-0.276-1.067-0.735-1.272  c-0.424-0.221-0.685-0.195-0.887-0.209c-0.127,0.004-0.242,0.01-0.354,0.019c-0.143-0.252-0.319-0.464-0.5-0.628  c-0.108-0.093-0.219-0.174-0.328-0.25c0.921-0.911,1.732-1.819,2.352-2.667c0.401-0.556,0.295-1.335-0.242-1.759  c-0.811-0.599-1.744-0.895-2.742-1.048l2.459-0.929c1.504-0.193,2.772-0.382,2.785-0.382c0.348-0.051,0.59-0.377,0.541-0.726  c-0.006-0.031-0.022-0.055-0.03-0.085c2.655-0.526,4.458-1.479,4.497-1.496c0.169-0.088,0.287-0.247,0.328-0.431l0.748-3.481  c0.5-0.535,0.895-1.132,1.194-1.67C93.187,34.241,91.282,34.287,89.149,34.414z M16.059,76.48c-3.632-0.008-6.572-2.947-6.579-6.58  c0.007-3.633,2.947-6.572,6.579-6.58c0.131,0,0.259,0.014,0.388,0.021c0.211,0.084,0.415,0.164,0.639,0.25  c0.37,0.139,0.746,0.324,1.122,0.525l-1.928,3.15c-0.073-0.006-0.142-0.023-0.218-0.023c-1.523,0-2.76,1.236-2.76,2.758  c0,1.523,1.236,2.76,2.76,2.76c1.152,0,2.137-0.709,2.551-1.711l0.292-0.021c0.372-0.027,0.713-0.227,0.926-0.531l2.246-3.248  c0.357,0.812,0.56,1.705,0.562,2.648C22.631,73.535,19.691,76.475,16.059,76.48z M68.54,72.018c0.72,1.348,2.141,2.266,3.775,2.266  c2.354,0,4.266-1.9,4.275-4.256l1.695-0.42c0.188-0.045,0.383-0.094,0.578-0.146c0.012,0.146,0.024,0.293,0.024,0.439  c-0.006,3.635-2.944,6.574-6.577,6.58c-2.684-0.004-4.982-1.609-6.008-3.908L68.54,72.018z"/><text x="0" y="115" fill="#000000" font-size="5px" font-weight="bold" font-family="'Helvetica Neue', Helvetica, Arial-Unicode, Arial, Sans-serif">Created by Olivier Guin</text><text x="0" y="120" fill="#000000" font-size="5px" font-weight="bold" font-family="'Helvetica Neue', Helvetica, Arial-Unicode, Arial, Sans-serif">from the Noun Project</text></svg>