<svg xmlns="http://www.w3.org/2000/svg" viewBox="0 0 32 40" x="0px" y="0px"><title>interface - 001 - glyph</title><g data-name="Layer 2"><path d="M30.71,29.29l-10-10a1,1,0,0,0-.31-.2,11,11,0,1,0-1.31,1.31,1,1,0,0,0,.2.31l10,10a1,1,0,0,0,1.42,0A1,1,0,0,0,30.71,29.29ZM12,21a9,9,0,1,1,9-9A9,9,0,0,1,12,21Z"/></g><text x="0" y="47" fill="#000000" font-size="5px" font-weight="bold" font-family="'Helvetica Neue', Helvetica, Arial-Unicode, Arial, Sans-serif">Created by Muhammad Syahrul</text><text x="0" y="52" fill="#000000" font-size="5px" font-weight="bold" font-family="'Helvetica Neue', Helvetica, Arial-Unicode, Arial, Sans-serif">from the Noun Project</text></svg>