<svg xmlns="http://www.w3.org/2000/svg" xmlns:xlink="http://www.w3.org/1999/xlink" viewBox="0 0 100 125" version="1.1" x="0px" y="0px"><title>farm-tractor</title><desc>Created with Sketch.</desc><g stroke="none" stroke-width="1" fill="none" fill-rule="evenodd"><g fill="#000000"><path d="M48.5342911,39.2778279 C49.1613662,28.6562635 51.0630734,21.4337097 51.0630734,21.4337097 L64.3140049,21.3125088 L64.2990921,41.2027168 C55.0778716,46.2410761 52.7924321,53.3741884 52.104341,55.2733857 L48.74613,55.2733857 C48.7066006,54.8318182 48.6702331,54.3922237 48.6369,53.9547558 L58.2028106,39.9058863 L57.6234995,39.3358488 L59.809217,36.9546499 L58.1789548,35.4102106 L56.0220426,37.7600281 C56.0220426,37.7600281 54.6624464,36.4221965 53.6210499,35.3974707 C53.3966082,35.1766218 52.5581366,35.1229178 52.3668842,35.3203996 L48.5342911,39.2778279 L48.5342911,39.2778279 L48.5342911,39.2778279 L48.5342911,39.2778279 L48.5342911,39.2778279 L48.5342911,39.2778279 L48.5342911,39.2778279 L48.5342911,39.2778279 L48.5342911,39.2778279 L48.5342911,39.2778279 L48.5342911,39.2778279 L48.5342911,39.2778279 L48.5342911,39.2778279 L48.5342911,39.2778279 L48.5342911,39.2778279 L48.5342911,39.2778279 L48.5342911,39.2778279 Z M75.0821864,39.1001491 C77.9636701,39.1178221 79.8663192,39.58226 79.8663192,39.58226 C79.8663192,30.9954587 78.2660801,21.3125088 78.2660801,21.3125088 L65.5687857,21.3125088 L65.4643963,40.8547376 C66.8074057,40.3195588 68.1341649,39.9359655 69.4069003,39.6666997 C68.847961,39.6713129 68.2890216,39.675926 67.7300823,39.6805392 C67.2354829,39.6846213 66.3336339,39.310738 66.3773088,39.1197142 C66.4956114,38.6022865 66.613914,38.0848588 66.7322166,37.5674311 C66.8064778,37.24263 67.6881305,36.5833904 68.0546957,36.5785716 C69.4674757,36.5599997 72.2930358,36.5228557 72.2930358,36.5228557 C72.2930358,36.5228557 73.7764767,31.6573208 74.5485792,29.0847492 C74.6585145,28.7184555 75.3306107,27.7359491 75.5263415,27.7507937 C76.0812982,27.7928828 77.1912117,27.8770609 77.1912117,27.8770609 L76.8561604,29.3862496 C76.8561604,29.3862496 75.2182241,35.0285926 75.0821864,39.1001491 L75.0821864,39.1001491 L75.0821864,39.1001491 L75.0821864,39.1001491 L75.0821864,39.1001491 L75.0821864,39.1001491 L75.0821864,39.1001491 L75.0821864,39.1001491 L75.0821864,39.1001491 L75.0821864,39.1001491 L75.0821864,39.1001491 L75.0821864,39.1001491 L75.0821864,39.1001491 L75.0821864,39.1001491 L75.0821864,39.1001491 L75.0821864,39.1001491 L75.0821864,39.1001491 Z M32.7562659,71.7584128 L34.5806772,71.9767497 L35.6695003,68.1498545 L41.2399897,68.1498545 L41.4634453,71.7199796 L55.9495633,72.1340426 L57.4901458,68.9137211 C56.9676147,67.1038604 56.6873065,65.1887969 56.6873065,63.2072219 C56.6873065,52.0291577 65.6069586,42.9675463 76.6099071,42.9675463 C82.554344,42.9675463 87.8907098,45.612443 91.5409777,49.8070524 L93.8738098,47.9092976 C93.8738098,47.9092976 91.3153304,42.8993427 81.6528191,40.189968 C81.6528208,29.1837536 79.8584788,20.9568649 79.8584788,20.9568649 L81.5515527,18.793024 C71.5927243,17.7553589 57.6460187,17.5517793 49.9438794,19.3125158 C47.1176002,28.3689616 46.9666084,39.221652 46.9666084,39.221652 C46.4774568,39.1531058 45.954422,39.0983533 45.4024768,39.0562158 L45.4024768,24.7093774 L42.0588235,24.7093774 L42.0588235,38.94443 C32.0570282,38.9548225 17.2836641,41.4940104 16.5242906,42.1097923 C14.6553378,43.9409392 13.3266087,49.9658513 12.6125093,54.0634515 C14.3115858,53.3876308 16.1611317,53.016616 18.0959752,53.016616 C26.4058944,53.016616 33.1424149,59.8603505 33.1424149,68.3025249 C33.1424149,69.4910475 33.0088962,70.6478889 32.7562659,71.7584128 L32.7562659,71.7584128 L32.7562659,71.7584128 L32.7562659,71.7584128 L32.7562659,71.7584128 L32.7562659,71.7584128 L32.7562659,71.7584128 L32.7562659,71.7584128 L32.7562659,71.7584128 L32.7562659,71.7584128 L32.7562659,71.7584128 L32.7562659,71.7584128 L32.7562659,71.7584128 L32.7562659,71.7584128 L32.7562659,71.7584128 L32.7562659,71.7584128 L32.7562659,71.7584128 Z M43.1733746,20.1802192 L44.2879257,20.1802192 L44.2879257,24.7093774 L43.1733746,24.7093774 L43.1733746,20.1802192 L43.1733746,20.1802192 L43.1733746,20.1802192 L43.1733746,20.1802192 L43.1733746,20.1802192 L43.1733746,20.1802192 L43.1733746,20.1802192 L43.1733746,20.1802192 L43.1733746,20.1802192 L43.1733746,20.1802192 L43.1733746,20.1802192 L43.1733746,20.1802192 L43.1733746,20.1802192 L43.1733746,20.1802192 L43.1733746,20.1802192 L43.1733746,20.1802192 L43.1733746,20.1802192 Z M27.5467533,42.240296 L29.8158092,42.0039195 L28.7540741,48.0195176 L26.5516222,48.4514356 L27.5467533,42.240296 L27.5467533,42.240296 L27.5467533,42.240296 L27.5467533,42.240296 L27.5467533,42.240296 L27.5467533,42.240296 L27.5467533,42.240296 L27.5467533,42.240296 L27.5467533,42.240296 L27.5467533,42.240296 L27.5467533,42.240296 L27.5467533,42.240296 L27.5467533,42.240296 L27.5467533,42.240296 L27.5467533,42.240296 L27.5467533,42.240296 L27.5467533,42.240296 Z M33.2442147,41.61714 L35.4928028,41.3412197 L34.2720381,47.7500602 L32.1883359,47.9789043 L33.2442147,41.61714 L33.2442147,41.61714 L33.2442147,41.61714 L33.2442147,41.61714 L33.2442147,41.61714 L33.2442147,41.61714 L33.2442147,41.61714 L33.2442147,41.61714 L33.2442147,41.61714 L33.2442147,41.61714 L33.2442147,41.61714 L33.2442147,41.61714 L33.2442147,41.61714 L33.2442147,41.61714 L33.2442147,41.61714 L33.2442147,41.61714 L33.2442147,41.61714 Z M24.3388263,42.7034121 L17.6236817,44.1067172 C17.6236817,44.1067172 15.928183,46.802671 15.3530994,50.9019302 L23.2808932,48.8480918 L24.3388263,42.7034121 L24.3388263,42.7034121 L24.3388263,42.7034121 L24.3388263,42.7034121 L24.3388263,42.7034121 L24.3388263,42.7034121 L24.3388263,42.7034121 L24.3388263,42.7034121 L24.3388263,42.7034121 L24.3388263,42.7034121 L24.3388263,42.7034121 L24.3388263,42.7034121 L24.3388263,42.7034121 L24.3388263,42.7034121 L24.3388263,42.7034121 L24.3388263,42.7034121 L24.3388263,42.7034121 Z M56.1136227,32.6794997 C56.3235246,32.4508251 56.6818133,32.4436735 56.9016045,32.651894 L62.6068114,38.0567582 C62.8320998,38.2701866 62.8384343,38.6352697 62.6346712,38.8572566 C62.4247693,39.0859313 62.0664805,39.0930829 61.8466894,38.8848623 L56.1414825,33.4799982 C55.916194,33.2665697 55.9098595,32.9014866 56.1136227,32.6794997 L56.1136227,32.6794997 L56.1136227,32.6794997 L56.1136227,32.6794997 L56.1136227,32.6794997 L56.1136227,32.6794997 L56.1136227,32.6794997 L56.1136227,32.6794997 L56.1136227,32.6794997 L56.1136227,32.6794997 L56.1136227,32.6794997 L56.1136227,32.6794997 L56.1136227,32.6794997 L56.1136227,32.6794997 L56.1136227,32.6794997 L56.1136227,32.6794997 L56.1136227,32.6794997 Z M68.1096859,79.9565294 C66.2474864,79.0270448 64.5599725,77.7916467 63.1106515,76.314853 L63.3025256,76.0482433 L64.484542,74.0981508 C64.484542,74.0981508 63.5006359,75.0845748 63.5136026,75.0215006 C63.4244117,74.9088464 62.149677,73.2987691 62.149677,73.2987691 C62.149677,73.2987691 61.4629258,73.3669286 60.8093336,73.4654155 C59.9112422,72.1032576 59.1822757,70.6163085 58.6529597,69.0355797 L60.3986509,67.9960843 C60.3986509,67.9960843 59.0740702,68.3977776 59.1146668,68.3482708 C59.0879753,68.206264 58.7064952,66.1766739 58.7064952,66.1766739 C58.7064952,66.1766739 58.3353574,66.0211115 57.8829553,65.8475515 C57.7378368,64.8946608 57.6625387,63.9183385 57.6625387,62.9241495 C57.6625387,61.7270844 57.7717032,60.5559219 57.9804704,59.4203759 L60.1990142,59.3662353 C60.1990142,59.3662353 58.8488159,59.0651743 58.9079479,59.0418696 C58.9523707,58.9045213 59.5872707,56.9415132 59.5872707,56.9415132 C59.5872707,56.9415132 59.2708995,56.5386026 58.905034,56.1064849 C59.6177126,54.2276291 60.6163263,52.4930733 61.8466995,50.9578552 L61.8929383,50.9840782 L63.9422243,51.9382994 C63.9422243,51.9382994 62.8585831,51.0663996 62.9217866,51.0717877 C63.0209798,50.9681236 64.4386693,49.486535 64.4386693,49.486535 C64.4386693,49.486535 64.3376274,49.0265424 64.2042872,48.5042023 C66.0241551,46.9231143 68.1468962,45.6913843 70.4718661,44.9112586 L71.5958977,46.7123011 C71.5958977,46.7123011 71.154511,45.3814779 71.2046294,45.4209677 C71.3433949,45.388912 73.3266588,44.9307649 73.3266588,44.9307649 C73.3266588,44.9307649 73.4514969,44.5901115 73.5958313,44.1604489 C74.4886609,44.0272708 75.4020368,43.9582997 76.3312693,43.9582997 C77.5390403,43.9582997 78.7200237,44.0748162 79.8639224,44.2973884 L79.9554727,46.5388633 C79.9554727,46.5388633 80.2282079,45.1621309 80.2521761,45.221788 C80.3881273,45.264514 82.3311692,45.8751611 82.3311692,45.8751611 C82.3311692,45.8751611 82.6790942,45.5829618 83.070152,45.231567 C85.0237867,46.0000826 86.818371,47.0929369 88.3898963,48.4451027 L88.3897704,48.4453226 L87.4148761,50.5102531 C87.4148761,50.5102531 88.2918982,49.4247498 88.2854922,49.4888554 C88.3857857,49.5914212 89.8191995,51.0573115 89.8191995,51.0573115 C89.8191995,51.0573115 90.2108083,50.9339803 90.6734195,50.7822987 C91.8044251,52.1596271 92.7468071,53.7023892 93.4602473,55.3696252 L93.0164082,55.6605257 L91.2249984,57.0507555 C91.2249984,57.0507555 92.4915187,56.4880615 92.4571636,56.5422255 C92.5006913,56.6798692 93.1227978,58.6471003 93.1227978,58.6471003 C93.1227978,58.6471003 93.9030615,58.8785389 94.5940339,58.9717302 C94.8600515,60.2465962 95,61.5687694 95,62.9241495 C95,63.1791547 94.9950461,63.4329843 94.9852309,63.6855447 L94.6123994,63.7308983 L92.4024017,64.1826279 C92.4024017,64.1826279 93.7835471,64.2409241 93.7292969,64.2743064 C93.7090256,64.4174047 93.4193039,66.4625942 93.4193039,66.4625942 C93.4193039,66.4625942 93.9479308,66.9508549 94.4926091,67.3344609 C94.1244333,68.9050337 93.5639773,70.3998644 92.8379123,71.7918573 L92.5644717,71.6952726 L90.383216,71.1170665 C90.383216,71.1170665 91.5994263,71.784553 91.536262,71.7903966 C91.4562948,71.9099847 90.3133879,73.6191619 90.3133879,73.6191619 C90.3133879,73.6191619 90.5606965,74.249748 90.8700404,74.8224957 C89.9487398,75.9828987 88.8955835,77.0307403 87.7337004,77.9425235 L87.5386452,77.7500109 L85.8022885,76.2894683 C85.8022885,76.2894683 86.6268766,77.4165896 86.5671994,77.3947665 C86.4449761,77.4688167 84.6981373,78.5271566 84.6981373,78.5271566 C84.6981373,78.5271566 84.6590222,79.2213562 84.703617,79.8804154 C83.3162546,80.588804 81.8299737,81.1266304 80.2714414,81.466803 L80.1573258,81.1452854 L79.2269281,79.0592755 C79.2269281,79.0592755 79.4817061,80.4395541 79.4374853,80.3933624 C79.2956788,80.4054864 77.268953,80.5787649 77.268953,80.5787649 C77.268953,80.5787649 76.9007434,81.2459995 76.6548319,81.8872082 C76.5471971,81.8890665 76.4393405,81.8899994 76.3312693,81.8899994 C74.6860318,81.8899994 73.0905016,81.6737894 71.5707072,81.267812 L71.6142858,80.9159719 L71.717488,78.6282093 C71.717488,78.6282093 71.3276803,79.9755541 71.3089213,79.9140017 C71.1771529,79.8594009 69.2938925,79.079035 69.2938925,79.079035 C69.2938925,79.079035 68.6574088,79.5247668 68.1096859,79.9565294 L68.1096859,79.9565294 L68.1096859,79.9565294 L68.1096859,79.9565294 L68.1096859,79.9565294 L68.1096859,79.9565294 L68.1096859,79.9565294 L68.1096859,79.9565294 L68.1096859,79.9565294 L68.1096859,79.9565294 L68.1096859,79.9565294 L68.1096859,79.9565294 L68.1096859,79.9565294 L68.1096859,79.9565294 L68.1096859,79.9565294 L68.1096859,79.9565294 L68.1096859,79.9565294 L68.1096859,79.9565294 Z M76.6099071,74.5301174 C82.7654028,74.5301174 87.755418,69.4606844 87.755418,63.2072219 C87.755418,56.9537594 82.7654028,51.8843265 76.6099071,51.8843265 C70.4544115,51.8843265 65.4643963,56.9537594 65.4643963,63.2072219 C65.4643963,69.4606844 70.4544115,74.5301174 76.6099071,74.5301174 L76.6099071,74.5301174 L76.6099071,74.5301174 L76.6099071,74.5301174 L76.6099071,74.5301174 L76.6099071,74.5301174 L76.6099071,74.5301174 L76.6099071,74.5301174 L76.6099071,74.5301174 L76.6099071,74.5301174 L76.6099071,74.5301174 L76.6099071,74.5301174 L76.6099071,74.5301174 L76.6099071,74.5301174 L76.6099071,74.5301174 L76.6099071,74.5301174 L76.6099071,74.5301174 Z M76.6099071,72.3733754 C81.5929274,72.3733754 85.6324635,68.2695487 85.6324635,63.2072219 C85.6324635,58.1448951 81.5929274,54.0410685 76.6099071,54.0410685 C71.6268868,54.0410685 67.5873507,58.1448951 67.5873507,63.2072219 C67.5873507,68.2695487 71.6268868,72.3733754 76.6099071,72.3733754 L76.6099071,72.3733754 L76.6099071,72.3733754 L76.6099071,72.3733754 L76.6099071,72.3733754 L76.6099071,72.3733754 L76.6099071,72.3733754 L76.6099071,72.3733754 L76.6099071,72.3733754 L76.6099071,72.3733754 L76.6099071,72.3733754 L76.6099071,72.3733754 L76.6099071,72.3733754 L76.6099071,72.3733754 L76.6099071,72.3733754 L76.6099071,72.3733754 L76.6099071,72.3733754 Z M76.6099071,70.0009592 C80.3032045,70.0009592 83.2972136,66.9592994 83.2972136,63.2072219 C83.2972136,59.4551444 80.3032045,56.4134847 76.6099071,56.4134847 C72.9166097,56.4134847 69.9226006,59.4551444 69.9226006,63.2072219 C69.9226006,66.9592994 72.9166097,70.0009592 76.6099071,70.0009592 L76.6099071,70.0009592 L76.6099071,70.0009592 L76.6099071,70.0009592 L76.6099071,70.0009592 L76.6099071,70.0009592 L76.6099071,70.0009592 L76.6099071,70.0009592 L76.6099071,70.0009592 L76.6099071,70.0009592 L76.6099071,70.0009592 L76.6099071,70.0009592 L76.6099071,70.0009592 L76.6099071,70.0009592 L76.6099071,70.0009592 L76.6099071,70.0009592 L76.6099071,70.0009592 Z M12.4845234,79.6556097 C11.1504103,78.9897103 9.94144514,78.104649 8.90312561,77.0466475 L9.04058764,76.8556436 L9.88740532,75.4585623 C9.88740532,75.4585623 9.18251737,76.1652542 9.19180698,76.1200667 C9.12790899,76.0393592 8.21466627,74.885871 8.21466627,74.885871 C8.21466627,74.885871 7.72266538,74.9347016 7.25442023,75.0052594 C6.61101146,74.0293851 6.08876681,72.9641082 5.70955535,71.8316457 L6.96019976,71.0869326 C6.96019976,71.0869326 6.01124644,71.3747129 6.04033058,71.3392453 C6.02120831,71.2375091 5.74790914,69.7834744 5.74790914,69.7834744 C5.74790914,69.7834744 5.48201934,69.6720267 5.15791037,69.5476852 C5.05394489,68.8650172 5,68.1655625 5,67.4533077 C5,66.5957088 5.07820741,65.756667 5.22777198,64.9431415 L6.81717646,64.9043542 C6.81717646,64.9043542 5.84987024,64.6886687 5.89223344,64.6719728 C5.92405875,64.5735741 6.37891246,63.1672399 6.37891246,63.1672399 C6.37891246,63.1672399 6.15225848,62.8785875 5.8901459,62.5690106 C6.40072163,61.2229647 7.11614635,59.9802978 7.99760771,58.8804401 L8.03073407,58.8992268 L9.49887926,59.5828479 C9.49887926,59.5828479 8.72253925,58.9582033 8.7678194,58.9620634 C8.83888321,58.8877966 9.8545413,57.82636 9.8545413,57.82636 C9.8545413,57.82636 9.78215313,57.496813 9.6866258,57.1225993 C10.9904118,55.9898795 12.5111815,55.1074461 14.1768316,54.54855 L14.9821079,55.8388491 C14.9821079,55.8388491 14.6658906,54.8854236 14.7017963,54.9137148 C14.8012104,54.8907495 16.2220562,54.5625247 16.2220562,54.5625247 C16.2220562,54.5625247 16.3114924,54.3184745 16.4148962,54.0106565 C17.0545353,53.9152453 17.7088941,53.8658332 18.374613,53.8658332 C19.2398817,53.8658332 20.0859594,53.9493077 20.9054689,54.1087624 L20.9710572,55.7145952 C20.9710572,55.7145952 21.1664496,54.7282794 21.1836208,54.7710189 C21.2810187,54.8016285 22.6730487,55.239107 22.6730487,55.239107 C22.6730487,55.239107 22.9223084,55.0297703 23.2024692,54.7780247 C24.6020881,55.328603 25.8877604,56.1115434 27.0136293,57.0802592 L27.0135391,57.0804168 L26.3151074,58.55977 C26.3151074,58.55977 26.9434217,57.7820959 26.9388324,57.8280224 C27.0106844,57.9015023 28.0376077,58.9516924 28.0376077,58.9516924 C28.0376077,58.9516924 28.3181633,58.8633357 28.6495862,58.7546683 C29.4598589,59.741411 30.1349983,60.8466734 30.6461196,62.0411112 L30.3281453,62.2495175 L29.0447473,63.2455031 C29.0447473,63.2455031 29.9521051,62.842379 29.9274924,62.881183 C29.9586765,62.9797934 30.4043647,64.3891531 30.4043647,64.3891531 C30.4043647,64.3891531 30.9633596,64.5549598 31.4583847,64.6217237 C31.6489644,65.5350605 31.749226,66.4822891 31.749226,67.4533077 C31.749226,67.6359979 31.745677,67.8178461 31.7386451,67.9987848 L31.471542,68.031277 L29.8882601,68.3549041 C29.8882601,68.3549041 30.8777374,68.3966686 30.8388716,68.4205842 C30.8243488,68.5231024 30.616787,69.9883128 30.616787,69.9883128 C30.616787,69.9883128 30.9955048,70.3381116 31.3857221,70.6129338 C31.1219544,71.7381203 30.7204337,72.8090437 30.2002677,73.8062923 L30.0043699,73.7370974 L28.4416793,73.3228601 C28.4416793,73.3228601 29.3129941,73.8010595 29.267742,73.8052459 C29.2104521,73.890921 28.3916532,75.1154061 28.3916532,75.1154061 C28.3916532,75.1154061 28.5688295,75.5671693 28.790449,75.977496 C28.1304127,76.8088295 27.3759127,77.559522 26.5435189,78.2127398 L26.4037778,78.0748203 L25.1598208,77.0284615 C25.1598208,77.0284615 25.7505704,77.8359514 25.7078166,77.8203169 C25.6202537,77.8733677 24.368787,78.6315814 24.368787,78.6315814 C24.368787,78.6315814 24.3407643,79.1289184 24.3727128,79.6010803 C23.3787815,80.1085825 22.3139833,80.493891 21.1974228,80.7375967 L21.1156683,80.5072558 L20.4491148,79.012801 C20.4491148,79.012801 20.6316423,80.0016572 20.5999617,79.9685647 C20.498369,79.9772505 19.0463863,80.1013904 19.0463863,80.1013904 C19.0463863,80.1013904 18.7825944,80.5794092 18.606419,81.0387826 C18.5293075,81.0401139 18.4520371,81.0407822 18.374613,81.0407822 C17.1959353,81.0407822 16.0528689,80.8858855 14.964061,80.595036 L14.9952815,80.3429715 L15.0692174,78.7039774 C15.0692174,78.7039774 14.7899522,79.6692394 14.7765129,79.6251421 C14.6821117,79.5860251 13.3329102,79.026957 13.3329102,79.026957 C13.3329102,79.026957 12.8769219,79.3462872 12.4845234,79.6556097 L12.4845234,79.6556097 L12.4845234,79.6556097 L12.4845234,79.6556097 L12.4845234,79.6556097 L12.4845234,79.6556097 L12.4845234,79.6556097 L12.4845234,79.6556097 L12.4845234,79.6556097 L12.4845234,79.6556097 L12.4845234,79.6556097 L12.4845234,79.6556097 L12.4845234,79.6556097 L12.4845234,79.6556097 L12.4845234,79.6556097 L12.4845234,79.6556097 L12.4845234,79.6556097 L12.4845234,79.6556097 Z M18.5742341,75.7680309 C22.9841414,75.7680309 26.5590777,72.1361984 26.5590777,67.6561058 C26.5590777,63.1760133 22.9841414,59.5441807 18.5742341,59.5441807 C14.1643268,59.5441807 10.5893905,63.1760133 10.5893905,67.6561058 C10.5893905,72.1361984 14.1643268,75.7680309 18.5742341,75.7680309 L18.5742341,75.7680309 L18.5742341,75.7680309 L18.5742341,75.7680309 L18.5742341,75.7680309 L18.5742341,75.7680309 L18.5742341,75.7680309 L18.5742341,75.7680309 L18.5742341,75.7680309 L18.5742341,75.7680309 L18.5742341,75.7680309 L18.5742341,75.7680309 L18.5742341,75.7680309 L18.5742341,75.7680309 L18.5742341,75.7680309 L18.5742341,75.7680309 L18.5742341,75.7680309 Z M18.5742341,74.2229023 C22.1441591,74.2229023 25.0381551,71.2828474 25.0381551,67.6561058 C25.0381551,64.0293643 22.1441591,61.0893093 18.5742341,61.0893093 C15.0043091,61.0893093 12.1103131,64.0293643 12.1103131,67.6561058 C12.1103131,71.2828474 15.0043091,74.2229023 18.5742341,74.2229023 L18.5742341,74.2229023 L18.5742341,74.2229023 L18.5742341,74.2229023 L18.5742341,74.2229023 L18.5742341,74.2229023 L18.5742341,74.2229023 L18.5742341,74.2229023 L18.5742341,74.2229023 L18.5742341,74.2229023 L18.5742341,74.2229023 L18.5742341,74.2229023 L18.5742341,74.2229023 L18.5742341,74.2229023 L18.5742341,74.2229023 L18.5742341,74.2229023 L18.5742341,74.2229023 Z M18.5742341,72.5232609 C21.2201785,72.5232609 23.3651402,70.3441613 23.3651402,67.6561058 C23.3651402,64.9680503 21.2201785,62.7889508 18.5742341,62.7889508 C15.9282897,62.7889508 13.7833279,64.9680503 13.7833279,67.6561058 C13.7833279,70.3441613 15.9282897,72.5232609 18.5742341,72.5232609 L18.5742341,72.5232609 L18.5742341,72.5232609 L18.5742341,72.5232609 L18.5742341,72.5232609 L18.5742341,72.5232609 L18.5742341,72.5232609 L18.5742341,72.5232609 L18.5742341,72.5232609 L18.5742341,72.5232609 L18.5742341,72.5232609 L18.5742341,72.5232609 L18.5742341,72.5232609 L18.5742341,72.5232609 L18.5742341,72.5232609 L18.5742341,72.5232609 L18.5742341,72.5232609 Z"/></g></g><text x="0" y="115" fill="#000000" font-size="5px" font-weight="bold" font-family="'Helvetica Neue', Helvetica, Arial-Unicode, Arial, Sans-serif">Created by Anton Anuchin</text><text x="0" y="120" fill="#000000" font-size="5px" font-weight="bold" font-family="'Helvetica Neue', Helvetica, Arial-Unicode, Arial, Sans-serif">from the Noun Project</text></svg>